<svg xmlns="http://www.w3.org/2000/svg" xmlns:xlink="http://www.w3.org/1999/xlink" style="position: absolute; width: 0; height: 0">
	<symbol id="icon-add-folder" class="icon" viewBox="0 0 1024 1024" xmlns="http://www.w3.org/2000/svg" xmlns:xlink="http://www.w3.org/1999/xlink"><path fill="currentColor" d="M806.4 512c19.2 0 38.4 19.2 38.4 38.4V704h140.8c19.2 0 38.4 19.2 38.4 38.4s-19.2 38.4-38.4 38.4h-140.8v140.8c0 19.2-19.2 38.4-38.4 38.4s-38.4-19.2-38.4-38.4v-140.8H614.4c-19.2 0-38.4-19.2-38.4-38.4s19.2-38.4 38.4-38.4H768V550.4c0-19.2 19.2-38.4 38.4-38.4z m-121.6-435.2c51.2 0 89.6 32 102.4 83.2l12.8 70.4h121.6c57.6 0 102.4 44.8 102.4 102.4V512h-76.8V332.8c0-12.8-6.4-25.6-19.2-25.6h-384c-32 0-64-25.6-76.8-57.6l-12.8-76.8c0-12.8-12.8-19.2-25.6-19.2H102.4c-12.8 0-25.6 12.8-25.6 25.6v665.6c0 12.8 12.8 25.6 25.6 25.6H576v76.8H102.4c-51.2 0-96-38.4-102.4-96V179.2c0-57.6 44.8-102.4 102.4-102.4h582.4z m0 76.8H524.8v6.4l12.8 70.4h179.2l-12.8-57.6c6.4-12.8-6.4-19.2-19.2-19.2z" /></symbol>
	<symbol id="icon-bell" class="icon" viewBox="0 0 1024 1024" xmlns="http://www.w3.org/2000/svg" xmlns:xlink="http://www.w3.org/1999/xlink"><path d="M512 64A64.810667 64.810667 0 0 1 576 128v64h-128V128A64.810667 64.810667 0 0 1 512 64zM256 768h512v-320c-2.005333-72.661333-27.008-132.992-75.008-180.992S584.661333 194.005333 512 192c-72.661333 2.005333-132.992 27.008-180.992 75.008S258.005333 375.338667 256 448V768z m256-640c90.666667 2.005333 166.186667 33.152 226.474667 93.482667 60.373333 60.373333 91.52 135.850667 93.525333 226.517333v384h-640v-384c2.005333-90.666667 33.152-166.144 93.482667-226.517333C345.813333 161.194667 421.333333 130.005333 512 128zM96 768h832c21.333333 0 32 10.666667 32 32s-10.666667 32-32 32H96c-21.333333 0-32-10.666667-32-32s10.666667-32 32-32z m352 128h128a64.512 64.512 0 0 1-18.986667 45.013333 61.226667 61.226667 0 0 1-45.013333 18.005334c-17.962667 0-32.981333-5.973333-45.013333-18.005334A64.682667 64.682667 0 0 1 448 896z" fill="currentColor" /></symbol>
	<symbol id="icon-camera" xmlns="http://www.w3.org/2000/svg" viewBox="0 0 24 24"><g fill="none" stroke="currentColor" stroke-width="1.5"><circle cx="12" cy="13" r="3"/><path stroke-linecap="round" d="M2 13.364c0-3.065 0-4.597.749-5.697a4.38 4.38 0 0 1 1.226-1.204c.72-.473 1.622-.642 3.003-.702c.659 0 1.226-.49 1.355-1.125A2.064 2.064 0 0 1 10.366 3h3.268c.988 0 1.839.685 2.033 1.636c.129.635.696 1.125 1.355 1.125c1.38.06 2.282.23 3.003.702c.485.318.902.727 1.226 1.204c.749 1.1.749 2.632.749 5.697c0 3.064 0 4.596-.749 5.697a4.408 4.408 0 0 1-1.226 1.204C18.904 21 17.343 21 14.222 21H9.778c-3.121 0-4.682 0-5.803-.735A4.406 4.406 0 0 1 2.75 19.06A3.43 3.43 0 0 1 2.277 18M19 10h-1"/></g></symbol>
	<symbol id="icon-checkmark" xmlns="http://www.w3.org/2000/svg" viewBox="0 0 12 12"><path fill="currentColor" d="M9.765 3.205a.75.75 0 0 1 .03 1.06l-4.25 4.5a.75.75 0 0 1-1.075.015L2.22 6.53a.75.75 0 0 1 1.06-1.06l1.705 1.704l3.72-3.939a.75.75 0 0 1 1.06-.03"/></symbol>
	<symbol id="icon-close" xmlns="http://www.w3.org/2000/svg" viewBox="0 0 32 32"><path fill="currentColor" d="M16 2C8.2 2 2 8.2 2 16s6.2 14 14 14s14-6.2 14-14S23.8 2 16 2m0 26C9.4 28 4 22.6 4 16S9.4 4 16 4s12 5.4 12 12s-5.4 12-12 12"/><path fill="currentColor" d="M21.4 23L16 17.6L10.6 23L9 21.4l5.4-5.4L9 10.6L10.6 9l5.4 5.4L21.4 9l1.6 1.6l-5.4 5.4l5.4 5.4z"/></symbol>
	<symbol id="icon-cloud-upload" xmlns="http://www.w3.org/2000/svg" viewBox="0 0 24 24"><path fill="currentColor" d="M19.35 10.04A7.49 7.49 0 0 0 12 4C9.11 4 6.6 5.64 5.35 8.04A5.994 5.994 0 0 0 0 14c0 3.31 2.69 6 6 6h13c2.76 0 5-2.24 5-5c0-2.64-2.05-4.78-4.65-4.96M14 13v4h-4v-4H7l4.65-4.65c.2-.2.51-.2.71 0L17 13z"/></symbol>
	<symbol id="icon-comment-filling" class="icon" viewBox="0 0 1024 1024" xmlns="http://www.w3.org/2000/svg" xmlns:xlink="http://www.w3.org/1999/xlink"><path d="M853.333333 138.666667H170.666667c-40.533333 0-74.666667 34.133333-74.666667 74.666666v516.266667c2.133333 38.4 34.133333 70.4 74.666667 70.4h151.466666v119.466667c2.133333 27.733333 36.266667 38.4 55.466667 19.2l136.533333-138.666667H853.333333c40.533333 0 74.666667-34.133333 74.666667-74.666667V213.333333c0-40.533333-34.133333-74.666667-74.666667-74.666666zM514.133333 554.666667H298.666667c-17.066667 0-32-14.933333-32-32s12.8-29.866667 29.866666-32H512c17.066667 0 32 14.933333 32 32s-12.8 29.866667-29.866667 32z m160-149.333334H298.666667c-17.066667 0-32-14.933333-32-32s12.8-29.866667 29.866666-32h375.466667c17.066667 0 32 14.933333 32 32s-12.8 29.866667-29.866667 32z" fill="currentColor"/></symbol>
	<symbol id="icon-delete" xmlns="http://www.w3.org/2000/svg" viewBox="0 0 1024 1024"><path fill="currentColor" d="M160 256H96a32 32 0 0 1 0-64h256V95.936a32 32 0 0 1 32-32h256a32 32 0 0 1 32 32V192h256a32 32 0 1 1 0 64h-64v672a32 32 0 0 1-32 32H192a32 32 0 0 1-32-32zm448-64v-64H416v64zM224 896h576V256H224zm192-128a32 32 0 0 1-32-32V416a32 32 0 0 1 64 0v320a32 32 0 0 1-32 32m192 0a32 32 0 0 1-32-32V416a32 32 0 0 1 64 0v320a32 32 0 0 1-32 32"/></symbol>
	<symbol id="icon-edit-pen" xmlns="http://www.w3.org/2000/svg" viewBox="0 0 24 24"><path fill="currentColor" d="M3.995 17.207V19.5a.5.5 0 0 0 .5.5h2.298a.5.5 0 0 0 .353-.146l9.448-9.448l-3-3l-9.452 9.448a.5.5 0 0 0-.147.353m10.837-11.04l3 3l1.46-1.46a1 1 0 0 0 0-1.414l-1.585-1.586a1 1 0 0 0-1.414 0z"/></symbol>
	<symbol id="icon-edit" xmlns="http://www.w3.org/2000/svg" viewBox="0 0 1024 1024"><path fill="currentColor" d="M832 512a32 32 0 1 1 64 0v352a32 32 0 0 1-32 32H160a32 32 0 0 1-32-32V160a32 32 0 0 1 32-32h352a32 32 0 0 1 0 64H192v640h640z"/><path fill="currentColor" d="m469.952 554.24l52.8-7.552L847.104 222.4a32 32 0 1 0-45.248-45.248L477.44 501.44l-7.552 52.8zm422.4-422.4a96 96 0 0 1 0 135.808l-331.84 331.84a32 32 0 0 1-18.112 9.088L436.8 623.68a32 32 0 0 1-36.224-36.224l15.104-105.6a32 32 0 0 1 9.024-18.112l331.904-331.84a96 96 0 0 1 135.744 0z"/></symbol>
	<symbol id="icon-more" xmlns="http://www.w3.org/2000/svg" viewBox="0 0 24 24"><path fill="currentColor" d="M12 3c-1.1 0-2 .9-2 2s.9 2 2 2s2-.9 2-2s-.9-2-2-2m0 14c-1.1 0-2 .9-2 2s.9 2 2 2s2-.9 2-2s-.9-2-2-2m0-7c-1.1 0-2 .9-2 2s.9 2 2 2s2-.9 2-2s-.9-2-2-2"/></symbol>
	<symbol id="icon-plus" xmlns="http://www.w3.org/2000/svg" viewBox="0 0 24 24"><path fill="currentColor" d="M19 11h-6V5a1 1 0 0 0-2 0v6H5a1 1 0 0 0 0 2h6v6a1 1 0 0 0 2 0v-6h6a1 1 0 0 0 0-2"/></symbol>
	<symbol id="icon-right" xmlns="http://www.w3.org/2000/svg" viewBox="0 0 1024 1024"><path fill="currentColor" d="M754.752 480H160a32 32 0 1 0 0 64h594.752L521.344 777.344a32 32 0 0 0 45.312 45.312l288-288a32 32 0 0 0 0-45.312l-288-288a32 32 0 1 0-45.312 45.312z"/></symbol>
	<symbol id="icon-search" class="icon" viewBox="0 0 1024 1024" xmlns="http://www.w3.org/2000/svg" xmlns:xlink="http://www.w3.org/1999/xlink"><path d="M945.066667 898.133333l-189.866667-189.866666c55.466667-64 87.466667-149.333333 87.466667-241.066667 0-204.8-168.533333-373.333333-373.333334-373.333333S96 264.533333 96 469.333333 264.533333 842.666667 469.333333 842.666667c91.733333 0 174.933333-34.133333 241.066667-87.466667l189.866667 189.866667c6.4 6.4 14.933333 8.533333 23.466666 8.533333s17.066667-2.133333 23.466667-8.533333c8.533333-12.8 8.533333-34.133333-2.133333-46.933334zM469.333333 778.666667C298.666667 778.666667 160 640 160 469.333333S298.666667 160 469.333333 160 778.666667 298.666667 778.666667 469.333333 640 778.666667 469.333333 778.666667z" fill="currentColor" /></symbol>
	<symbol id="icon-translate" xmlns="http://www.w3.org/2000/svg" viewBox="0 0 24 24"><path fill="currentColor" d="m12.87 15.07l-2.54-2.51l.03-.03A17.52 17.52 0 0 0 14.07 6H17V4h-7V2H8v2H1v1.99h11.17C11.5 7.92 10.44 9.75 9 11.35C8.07 10.32 7.3 9.19 6.69 8h-2c.73 1.63 1.73 3.17 2.98 4.56l-5.09 5.02L4 19l5-5l3.11 3.11zM18.5 10h-2L12 22h2l1.12-3h4.75L21 22h2zm-2.62 7l1.62-4.33L19.12 17z"/></symbol>
	<symbol id="icon-user-filling" class="icon" viewBox="0 0 1024 1024" xmlns="http://www.w3.org/2000/svg"><path d="M512 74.666667C270.933333 74.666667 74.666667 270.933333 74.666667 512S270.933333 949.333333 512 949.333333 949.333333 753.066667 949.333333 512 753.066667 74.666667 512 74.666667z m0 160c70.4 0 128 57.6 128 128s-57.6 128-128 128-128-57.6-128-128 57.6-128 128-128z m236.8 507.733333c-23.466667 32-117.333333 100.266667-236.8 100.266667s-213.333333-68.266667-236.8-100.266667c-8.533333-10.666667-10.666667-21.333333-8.533333-32 29.866667-110.933333 130.133333-187.733333 245.333333-187.733333s215.466667 76.8 245.333333 187.733333c2.133333 10.666667 0 21.333333-8.533333 32z" fill="currentColor" /></symbol>
	<symbol id="icon-view" class="icon" viewBox="0 0 1024 1024" xmlns="http://www.w3.org/2000/svg" xmlns:xlink="http://www.w3.org/1999/xlink"><path d="M512 416a96 96 0 1 0 0 192 96 96 0 0 0 0-192z m511.952 102.064c-0.016-0.448-0.064-0.864-0.096-1.296a8.16 8.16 0 0 0-0.08-0.656c0-0.32-0.064-0.624-0.128-0.928-0.032-0.368-0.064-0.736-0.128-1.088-0.032-0.048-0.032-0.096-0.032-0.144a39.488 39.488 0 0 0-10.704-21.536c-32.672-39.616-71.536-74.88-111.04-107.072-85.088-69.392-182.432-127.424-289.856-150.8-62.112-13.504-124.576-14.064-187.008-2.64-56.784 10.384-111.504 32-162.72 58.784-80.176 41.92-153.392 99.696-217.184 164.48-11.808 11.984-23.552 24.224-34.288 37.248-14.288 17.328-14.288 37.872 0 55.216 32.672 39.616 71.52 74.848 111.04 107.056 85.12 69.392 182.448 127.408 289.888 150.784 62.096 13.504 124.608 14.096 187.008 2.656 56.768-10.4 111.488-32 162.736-58.768 80.176-41.936 153.376-99.696 217.184-164.48 11.792-12 23.536-24.224 34.288-37.248 5.712-5.872 9.456-13.44 10.704-21.568l0.032-0.128a12.592 12.592 0 0 0 0.128-1.088c0.064-0.304 0.096-0.624 0.128-0.928l0.08-0.656 0.096-1.28c0.032-0.656 0.048-1.296 0.048-1.952l-0.096-1.968zM512 704c-106.032 0-192-85.952-192-192s85.952-192 192-192 192 85.968 192 192c0 106.048-85.968 192-192 192z" fill="currentColor" /></symbol>
</svg>