<svg class="icon" viewBox="0 0 1024 1024" version="1.1" xmlns="http://www.w3.org/2000/svg" xmlns:xlink="http://www.w3.org/1999/xlink" width="200" height="200"><path fill="currentColor" d="M806.4 512c19.2 0 38.4 19.2 38.4 38.4V704h140.8c19.2 0 38.4 19.2 38.4 38.4s-19.2 38.4-38.4 38.4h-140.8v140.8c0 19.2-19.2 38.4-38.4 38.4s-38.4-19.2-38.4-38.4v-140.8H614.4c-19.2 0-38.4-19.2-38.4-38.4s19.2-38.4 38.4-38.4H768V550.4c0-19.2 19.2-38.4 38.4-38.4z m-121.6-435.2c51.2 0 89.6 32 102.4 83.2l12.8 70.4h121.6c57.6 0 102.4 44.8 102.4 102.4V512h-76.8V332.8c0-12.8-6.4-25.6-19.2-25.6h-384c-32 0-64-25.6-76.8-57.6l-12.8-76.8c0-12.8-12.8-19.2-25.6-19.2H102.4c-12.8 0-25.6 12.8-25.6 25.6v665.6c0 12.8 12.8 25.6 25.6 25.6H576v76.8H102.4c-51.2 0-96-38.4-102.4-96V179.2c0-57.6 44.8-102.4 102.4-102.4h582.4z m0 76.8H524.8v6.4l12.8 70.4h179.2l-12.8-57.6c6.4-12.8-6.4-19.2-19.2-19.2z" /></svg>