<svg class="icon" viewBox="0 0 1024 1024" version="1.1" xmlns="http://www.w3.org/2000/svg" xmlns:xlink="http://www.w3.org/1999/xlink" width="200" height="200"><path d="M512 64A64.810667 64.810667 0 0 1 576 128v64h-128V128A64.810667 64.810667 0 0 1 512 64zM256 768h512v-320c-2.005333-72.661333-27.008-132.992-75.008-180.992S584.661333 194.005333 512 192c-72.661333 2.005333-132.992 27.008-180.992 75.008S258.005333 375.338667 256 448V768z m256-640c90.666667 2.005333 166.186667 33.152 226.474667 93.482667 60.373333 60.373333 91.52 135.850667 93.525333 226.517333v384h-640v-384c2.005333-90.666667 33.152-166.144 93.482667-226.517333C345.813333 161.194667 421.333333 130.005333 512 128zM96 768h832c21.333333 0 32 10.666667 32 32s-10.666667 32-32 32H96c-21.333333 0-32-10.666667-32-32s10.666667-32 32-32z m352 128h128a64.512 64.512 0 0 1-18.986667 45.013333 61.226667 61.226667 0 0 1-45.013333 18.005334c-17.962667 0-32.981333-5.973333-45.013333-18.005334A64.682667 64.682667 0 0 1 448 896z" fill="currentColor" /></svg>